<svg xmlns="http://www.w3.org/2000/svg" width="128" height="128" viewBox="0 0 128 128" fill="none">
  <defs>
    <linearGradient id="g1" x1="12" y1="8" x2="116" y2="120" gradientUnits="userSpaceOnUse">
      <stop stop-color="#00E6D2"/>
      <stop offset="1" stop-color="#1ED760"/>
    </linearGradient>
    <linearGradient id="g2" x1="40" y1="28" x2="92" y2="104" gradientUnits="userSpaceOnUse">
      <stop stop-color="#1B2A38"/>
      <stop offset="1" stop-color="#0F161D"/>
    </linearGradient>
  </defs>
  <rect x="8" y="8" width="112" height="112" rx="28" fill="url(#g2)" stroke="url(#g1)" stroke-width="4"/>
  <path d="M64 30c-18.2 0-33 14.8-33 33s14.8 33 33 33 33-14.8 33-33S82.2 30 64 30Zm0 58c-13.8 0-25-11.2-25-25S50.2 38 64 38s25 11.2 25 25-11.2 25-25 25Z" fill="#00E6D2"/>
  <path d="M64 46c-9.9 0-18 8.1-18 18 0 5 2 9.7 5.6 13.2a2 2 0 0 0 2.8-2.8A14 14 0 1 1 78 64a13.9 13.9 0 0 1-4.4 10.2 2 2 0 1 0 2.8 2.8A18 18 0 0 0 64 46Z" fill="#1ED760"/>
  <path d="M70.5 56.5 63 64l7.5 7.5a2 2 0 1 1-2.8 2.8l-8.9-8.9a2 2 0 0 1 0-2.8l8.9-8.9a2 2 0 1 1 2.8 2.8Z" fill="#fff"/>
</svg>
